<?xml version="1.0" encoding="utf-8"?>
<!-- Generator: Adobe Illustrator 16.0.0, SVG Export Plug-In . SVG Version: 6.00 Build 0)  -->
<!DOCTYPE svg PUBLIC "-//W3C//DTD SVG 1.1//EN" "http://www.w3.org/Graphics/SVG/1.1/DTD/svg11.dtd">
<svg version="1.1" id="Layer_1" xmlns="http://www.w3.org/2000/svg" xmlns:xlink="http://www.w3.org/1999/xlink" x="0px" y="0px"
	 width="863px" height="826.715px" viewBox="0 0 863 826.715" enable-background="new 0 0 863 826.715" xml:space="preserve">
<title>laravel and vue</title>
<path fill="#F2F2F2" d="M740.084,309.387C695.168,132.765,539.968,5.269,357.796,0.156C261.488-2.548,160.144,29.393,86.359,141.168
	C-45.541,340.976,94.464,479.051,192.073,544.66c47.156,31.762,89.646,69.952,126.241,113.465
	c65.931,78.238,192.767,175.459,343.822,23.129C771.622,570.844,770.003,427.034,740.084,309.387z"/>
<path fill="#3F3D56" d="M862,702.715c0,43.354-189.189,124-427.5,124c-238.312,0-434.5-75.646-434.5-119s196.188-38,434.5-38
	C672.811,669.715,862,659.36,862,702.715z"/>
<path opacity="0.1" enable-background="new    " d="M862,702.715c0,43.354-189.189,124-427.5,124c-238.312,0-434.5-75.646-434.5-119
	s196.188-38,434.5-38C672.811,669.715,862,659.36,862,702.715z"/>
<ellipse fill="#3F3D56" cx="431.5" cy="707.215" rx="431.5" ry="78.5"/>
<polygon fill="#2F2E41" points="594.859,440.238 594.859,650.182 629.976,707.413 632.649,711.766 771.212,711.766 774.011,440.238 
	"/>
<polygon opacity="0.1" enable-background="new    " points="594.859,440.238 594.859,650.182 629.976,707.413 632.131,440.238 "/>
<polygon fill="#2F2E41" points="260.348,434.639 260.348,644.584 225.231,701.814 222.558,706.168 83.994,706.168 81.195,434.639 
	"/>
<polygon opacity="0.1" enable-background="new    " points="260.348,434.639 260.348,644.584 225.231,701.814 223.075,434.639 "/>
<polygon fill="#2F2E41" points="816,430.44 816,443.037 63,443.037 63,424.843 132.981,388.452 754.416,388.452 "/>
<polygon opacity="0.1" enable-background="new    " points="816,430.44 816,443.037 63,443.037 63,424.843 "/>
<polygon opacity="0.1" enable-background="new    " points="170.771,493.425 137.18,493.425 123.184,483.627 186.167,483.627 "/>
<polygon opacity="0.1" enable-background="new    " points="170.771,534.013 137.18,534.013 123.184,524.216 186.167,524.216 "/>
<polygon opacity="0.1" enable-background="new    " points="170.771,591.398 137.18,591.398 123.184,581.6 186.167,581.6 "/>
<polygon opacity="0.1" enable-background="new    " points="170.771,648.782 137.18,648.782 123.184,638.985 186.167,638.985 "/>
<polygon opacity="0.1" enable-background="new    " points="684.435,499.022 718.026,499.022 732.022,489.225 669.038,489.225 "/>
<polygon opacity="0.1" enable-background="new    " points="684.435,539.611 718.026,539.611 732.022,529.814 669.038,529.814 "/>
<polygon opacity="0.1" enable-background="new    " points="684.435,596.996 718.026,596.996 732.022,587.199 669.038,587.199 "/>
<polygon opacity="0.1" enable-background="new    " points="684.435,654.382 718.026,654.382 732.022,644.584 669.038,644.584 "/>
<path fill="#3F3D56" d="M532.516,353.427l-4.669,29.808c0,0-22.984,12.211-6.823,12.569c16.16,0.359,92.295,0,92.295,0
	s14.725,0-8.619-12.929l-4.668-31.243L532.516,353.427z"/>
<path opacity="0.1" enable-background="new    " d="M517.773,395.48c3.139-2.537,6.512-4.771,10.074-6.668l4.669-29.808
	l67.516,0.063l4.668,29.385c3.836,1.979,7.452,4.359,10.789,7.099c2.998-0.684,6.274-3.226-10.789-12.677l-4.668-31.243
	l-67.516,1.795l-4.669,29.808C527.847,383.234,508.533,393.496,517.773,395.48z"/>
<path fill="#3F3D56" d="M424.519,145.672H707.31c5.906,0,10.694,4.788,10.694,10.695v190.495c0,5.906-4.788,10.694-10.694,10.694
	H424.519c-5.906,0-10.694-4.788-10.694-10.694V156.367C413.824,150.46,418.613,145.672,424.519,145.672z"/>
<rect x="424.059" y="156.984" fill="#F2F2F2" width="283.711" height="158.734"/>
<circle fill="#F2F2F2" cx="565.914" cy="151.956" r="1.795"/>
<path fill="#3F3D56" d="M718.004,328.288v18.574c0.001,5.905-4.786,10.694-10.691,10.694c-0.001,0-0.002,0-0.003,0H424.519
	c-5.905,0.001-10.694-4.786-10.694-10.691c0-0.001,0-0.002,0-0.003v-18.574H718.004z"/>
<circle fill="#F2F2F2" cx="565.914" cy="343.012" r="6.823"/>
<polygon fill="#3F3D56" points="555.281,415.196 555.281,418.788 362.071,418.788 362.071,415.915 362.337,415.196 367.099,402.268 
	551.33,402.268 "/>
<path fill="#3F3D56" d="M629.635,411.68c-0.353,1.505-1.681,3.093-4.684,4.594c-10.773,5.387-32.68-1.437-32.68-1.437
	s-16.88-2.873-16.88-10.415c0.475-0.324,0.969-0.618,1.48-0.88c4.529-2.396,19.548-8.31,46.178,0.251
	c1.962,0.615,3.714,1.764,5.062,3.316C629.323,408.302,629.889,410.002,629.635,411.68z"/>
<path opacity="0.1" enable-background="new    " d="M629.635,411.68c-13.188,5.054-24.941,5.431-37.005-2.948
	c-6.083-4.224-11.61-5.269-15.758-5.189c4.529-2.396,19.548-8.31,46.178,0.251c1.962,0.615,3.714,1.764,5.062,3.316
	C629.323,408.302,629.89,410.002,629.635,411.68z"/>
<ellipse fill="#F2F2F2" cx="613.101" cy="407.296" rx="4.669" ry="1.437"/>
<polygon opacity="0.1" enable-background="new    " points="555.281,415.196 555.281,418.788 362.071,418.788 362.071,415.915 
	362.337,415.196 "/>
<path fill="#FB503B" d="M665.694,231.951c-1.524-1.524-21.088-26.168-24.391-30.233c-3.557-4.064-5.081-3.303-7.367-3.049
	c-2.287,0.254-26.932,4.573-29.726,4.827c-2.795,0.509-4.573,1.524-2.795,4.065c1.524,2.286,17.784,25.152,21.342,30.487
	l-64.787,15.498l-51.32-86.128c-2.033-3.049-2.541-4.064-7.114-3.811s-40.396,3.303-42.937,3.303
	c-2.541,0.254-5.335,1.271-2.795,7.368c2.541,6.097,43.191,93.495,44.207,96.036c1.017,2.54,4.065,6.605,10.925,5.081
	c7.114-1.778,31.504-8.13,44.97-11.688c7.113,12.704,21.341,38.618,24.136,42.429c3.557,5.082,6.098,4.065,11.433,2.541
	c4.319-1.271,66.565-23.628,69.36-24.898c2.794-1.271,4.572-2.032,2.54-4.827c-1.524-2.032-17.784-24.136-26.423-35.569
	c5.844-1.523,26.932-7.113,29.218-7.876C666.71,234.746,667.218,233.475,665.694,231.951L665.694,231.951z M548.062,256.088
	c-0.763,0.254-37.094,8.892-38.872,9.4c-2.032,0.508-2.032,0.254-2.032-0.509c-0.508-0.762-43.19-89.176-43.953-90.192
	c-0.508-1.017-0.508-2.032,0-2.032s34.299-3.049,35.314-3.049c1.271,0,1.017,0.254,1.524,1.016c0,0,47.511,82.063,48.272,83.333
	C549.332,255.325,548.823,255.834,548.062,256.088L548.062,256.088z M650.196,275.142c0.508,1.017,1.271,1.524-0.763,2.032
	c-1.778,0.763-61.229,20.833-62.499,21.342c-1.271,0.508-2.033,0.762-3.558-1.524c-1.524-2.287-20.833-35.569-20.833-35.569
	l63.262-16.514c1.524-0.509,2.033-0.763,3.049,0.762C629.87,247.449,649.688,274.38,650.196,275.142L650.196,275.142z
	 M654.26,230.427c-1.523,0.255-24.644,6.098-24.644,6.098l-19.055-25.914c-0.509-0.763-1.017-1.524,0.254-1.778
	s22.865-4.065,23.882-4.319s1.778-0.508,3.049,1.271c1.271,1.524,17.53,22.357,18.293,23.119
	C656.801,229.665,655.784,230.173,654.26,230.427L654.26,230.427z"/>
<circle fill="#FFB9B9" cx="394.639" cy="155.895" r="38.247"/>
<path fill="#FFB9B9" d="M366.457,175.018v60.389h62.402c0,0-8.052-50.324-4.026-65.422L366.457,175.018z"/>
<path fill="#D0CDE1" d="M490.255,256.544c0,0-59.383-29.188-59.383-31.201s-6.039-15.098-10.064-15.098
	c-4.026,0-38.247-11.071-57.37,5.032l-2.013,13.085l-73.474,48.312l20.129,73.474c0,0,13.085,14.091,9.059,24.156
	c-4.025,10.064,3.02,61.396,3.02,61.396l158.02-5.032v-68.441c0,0,5.032-16.104,8.052-21.136c3.02-5.033,0-20.13,0-20.13
	l24.155-30.195C510.385,290.764,507.365,262.583,490.255,256.544z"/>
<path opacity="0.1" enable-background="new    " d="M290.467,301.333l4.529-24.659c0,0-26.169,113.733-23.149,126.818
	c3.02,13.084,25.162,33.214,28.182,34.221c3.02,1.006,31.201-86.559,31.201-86.559L290.467,301.333z"/>
<path fill="#D0CDE1" d="M305.061,273.654l-17.11,3.02c0,0-26.168,113.733-23.148,126.818c3.02,13.084,25.162,33.214,28.182,34.221
	c3.02,1.006,31.201-86.559,31.201-86.559L305.061,273.654z"/>
<path opacity="0.1" enable-background="new    " d="M495.791,307.372l8.555-16.607c0,0,12.078,113.733,4.026,124.806
	c-8.052,11.071-39.903,15.214-39.903,15.214l-0.356-82.649L495.791,307.372z"/>
<path fill="#D0CDE1" d="M497.301,277.68l13.084,13.084c0,0,12.078,113.733,4.026,124.806c-8.052,11.071-39.903,15.214-39.903,15.214
	l-0.356-82.649L497.301,277.68z"/>
<path fill="#3F3D56" d="M302.042,450.797c0,0-29.188-11.071-34.221,10.065c-5.033,21.136,12.077,115.746,12.077,115.746
	s11.071,71.461,18.117,73.474c7.045,2.014,38.247,3.02,43.279-6.039c5.032-9.058-15.098-101.655-15.098-101.655l116.753-2.013
	c0,0-7.046,80.52-11.071,87.564c-4.026,7.046-4.026,31.201,0,31.201c4.025,0,48.312-2.013,51.331-8.052s20.13-141.915,20.13-141.915
	s14.091-47.306-2.014-44.286C485.223,467.907,302.042,450.797,302.042,450.797z"/>
<path fill="#2F2E41" d="M474.152,647.062c0,0,10.064-7.045,15.098,0c5.032,7.046,7.045,15.098-15.098,27.176
	s-39.253,9.059-39.253,7.045v-29.188L474.152,647.062z"/>
<path fill="#2F2E41" d="M300.029,644.043c0,0-10.064-7.045-15.097,0c-5.033,7.046-7.046,15.098,15.097,27.176
	c22.144,12.078,39.254,9.059,39.254,7.045v-29.188L300.029,644.043z"/>
<path fill="#2F2E41" d="M394.887,107.67c-3.81-0.133-7.612,0.409-11.233,1.601c-2.808,1.129-5.49,2.548-8.003,4.234l-16.885,10.5
	c-2.932,1.269-4.813,4.176-4.767,7.37l-2.11,15.802c-0.532,3.987-1.023,8.252,0.762,11.857c1.49,3.01,4.332,5.068,6.668,7.48
	c3.739,3.876,6.256,8.766,7.236,14.062c1.208,6.597,0.435,14.542,5.656,18.753c2.827,2.279,6.68,2.711,10.306,2.923
	c9.914,0.578,19.86,0.195,29.7-1.144c1.564-0.117,3.09-0.545,4.487-1.258c1.775-1.05,2.893-2.902,3.938-4.681
	c3.771-6.42,7.656-13.249,7.616-20.694c-0.021-3.683-0.963-7.639,0.806-10.87c0.935-1.373,1.948-2.69,3.037-3.944
	c2.189-3.077,2.616-7.03,2.973-10.79c1.14-12.009-0.052-21.147-8.902-29.606C417.909,111.368,406.155,107.742,394.887,107.67z"/>
<polygon fill="#2F2E41" points="300.937,569.703 267.346,740.459 284.141,740.459 316.333,572.504 "/>
<polygon fill="#2F2E41" points="408.707,583.7 429.702,779.648 443.698,779.648 431.102,578.101 "/>
<polygon fill="#2F2E41" points="466.093,578.101 495.485,708.267 509.481,708.267 481.489,575.302 "/>
<polygon fill="#2F2E41" points="354.123,578.101 349.924,681.675 361.121,681.675 369.519,578.101 "/>
<path fill="#2A65F6" d="M277.143,551.509c0,0-22.394-149.761,40.59-153.959c62.982-4.199,152.559,0,152.559,0
	s51.787-4.199,36.391,153.959c0,0,13.996,46.188-111.97,41.988C268.745,589.299,277.143,551.509,277.143,551.509z"/>
<path fill="#2A65F6" d="M851,612.666c0,26.115-15.525,35.233-34.677,35.233s-34.677-9.118-34.677-35.233
	c0-26.116,34.677-59.339,34.677-59.339S851,586.55,851,612.666z"/>
<polygon fill="#3F3D56" points="815.416,622.049 830.195,595.01 815.471,618.619 815.631,608.793 825.817,589.229 815.673,606.191 
	815.96,588.516 826.867,572.942 816.005,585.737 816.185,553.327 815.106,594.394 804.06,577.487 814.972,597.859 813.939,617.599 
	813.907,617.075 801.122,599.213 813.868,618.927 813.74,621.395 813.717,621.432 813.728,621.635 811.106,647.977 814.609,647.977 
	815.029,645.849 827.743,626.182 815.06,643.904 "/>
<polygon fill="#2F2E41" points="838.47,704.55 797.129,704.55 786.445,644.163 846.83,644.163 "/>
<rect x="145" y="296.301" fill="#3F3D56" width="86" height="100.828"/>
<rect x="158.345" y="311.946" fill="#F2F2F2" width="59.311" height="69.536"/>
</svg>
